<svg id="Layer_1" data-name="Layer 1" xmlns="http://www.w3.org/2000/svg" viewBox="0 0 239.04 291.38"><defs><style>.cls-1,.cls-2,.cls-3{fill:none;stroke:#0033a1;stroke-width:23px;}.cls-1,.cls-3{stroke-linecap:round;}.cls-1,.cls-2{stroke-miterlimit:10;}.cls-3{stroke-linejoin:round;}</style></defs><line class="cls-1" x1="38.93" y1="24.6" x2="67.91" y2="49.82"/><path class="cls-2" d="M255.88,56s-27.39,19.24-48.41,17.65c0,0-19.89,2.23-54.05-13.06,0,0-24.29-11.85-53.26,2.52l-6.61,3" transform="translate(-33.52 -6.18)"/><path class="cls-3" d="M257.87,143.63c-27.23,20.06-48,22.21-52,23.64s-26.15-.71-38.4-7.27-20.71,0-20.71,0l53.74,102.57c32.9-29.38,55.72-46,59.47-107.48,3.82-62.65-4.14-127.54-4.14-127.54-102.76-22.21-205.08,0-205.08,0S44.72,97,45.06,152.13c0,0-5.78,95,114.33,133.93L66.56,99,52.23,82.73" transform="translate(-33.52 -6.18)"/></svg>